<?xml version="1.0" standalone="no"?><!DOCTYPE svg PUBLIC "-//W3C//DTD SVG 1.1//EN" "http://www.w3.org/Graphics/SVG/1.1/DTD/svg11.dtd"><svg t="1725110625401" class="icon" viewBox="0 0 1024 1024" version="1.1" xmlns="http://www.w3.org/2000/svg" p-id="10568" xmlns:xlink="http://www.w3.org/1999/xlink" width="200" height="200"><path d="M732.2752 576.6272 730.7776 568.6144 729.5872 564.4928 728.4224 560.1152 726.8864 555.9296 725.3248 551.2832 723.52 546.9056 721.5616 542.3872 718.0672 535.0528 714.9568 528.5632 711.8592 522.7776 709.1584 517.3888 706.0608 512.4736 703.7824 507.9552 698.9696 501.2224 692.9024 492.2496 691.5072 490.0352 691.0336 489.088 691.0336 488.3456 692.0448 485.312 693.4528 482.6112 694.6816 477.2864 695.36 474.5344 695.36 471.6928 695.7056 469.4016 695.7056 467.1104 695.36 464.4736 694.9504 462.3232 694.0672 457.9456 692.9024 453.7088 691.8528 449.8048 690.2144 446.016 688.3328 442.8544 686.8736 439.8848 685.2352 437.056 682.6752 432.8832 681.728 431.3984 681.4464 430.1184 680.256 422.0288 679.5008 416.704 678.6304 410.0992 677.2864 403.2896 675.1744 395.4816 673.984 391.0912 673.024 387.392 671.7056 383.0784 670.2208 378.496 668.736 374.2464 666.8288 369.6768 662.9376 360.8448 660.6464 356.672 657.8688 351.872 655.2704 347.7632 652.672 343.1168 648.9984 338.8032 645.888 334.6304 642.112 330.3168 638.2592 326.4 634.368 322.624 629.7728 318.72 627.3408 317.2992 625.0624 315.3536 620.0832 311.9104 614.336 308.1984 608.4736 304.8448 602.432 301.8112 595.8144 299.0336 589.6064 296.4096 583.1296 294.1184 576.0512 292.224 569.6 290.5472 562.7136 289.0752 556.1984 287.5264 549.1712 286.784 542.2848 285.9648 535.4368 285.0944 528.3456 285.0944 521.4976 285.0944 514.88 285.0944 507.9296 285.4784 501.376 286.3744 494.8736 287.2448 488.256 288.32 481.7152 289.536 475.5072 291.0208 469.2992 292.9792 463.5392 294.9248 457.7792 296.8064 451.9808 299.584 446.528 301.8112 441.6896 304.4992 436.6464 307.5328 431.9872 310.6944 427.4048 314.2656 423.616 317.568 417.6896 323.0208 412.7744 328.0896 408.0768 332.992 403.7376 337.9968 399.6928 343.1168 396.1344 348.096 392.6784 353.088 391.0784 355.3152 389.5936 358.0032 386.3552 362.7264 383.7952 367.4496 381.5168 371.8912 379.5456 376.6144 377.6 380.9152 375.9744 384.96 374.4896 389.2736 372.992 393.2544 370.9824 400.4608 369.5232 407.3984 368.704 413.1968 367.8848 418.1888 367.8848 422.0288 367.8848 425.1392 367.8848 427.8912 366.4768 429.376 365.184 431.3984 364.1856 433.216 363.3152 435.1744 362.2272 439.424 361.024 443.328 360.6144 446.8224 360.3456 449.3952 360.3456 452.1472 357.5808 456.064 355.6224 459.9808 354.1376 463.744 353.0496 467.1104 352.2048 470.3488 351.3856 473.3824 351.3856 475.9424 351.3856 478.7712 351.3856 481.1264 351.8592 483.0208 352.5376 486.464 353.3952 489.088 351.8592 490.2272 347.5328 493.4016 341.7984 498.5216 338.2912 501.5424 334.8608 504.512 332.4928 506.88 330.5472 508.9664 326.3744 513.344 322.4064 517.7216 319.296 521.4976 315.584 526.9632 312.0256 531.8784 308.5312 537.344 305.5616 542.3872 303.104 547.776 300.5056 552.768 298.6112 557.6832 296.6016 562.816 295.0912 567.7952 293.632 572.9152 292.3392 577.3696 291.5968 582.1568 290.8032 586.5984 290.1248 590.912 289.7152 599.3344 289.7152 607.1424 289.7152 610.6496 290.1248 614.0928 291.2128 619.9552 291.5968 622.528 292.3392 625.1392 293.2224 627.6352 294.0416 629.3888 295.3728 632.6272 296.3968 633.2928 297.0112 634.6496 297.792 634.9824 298.2656 634.9824 298.6112 634.9824 302.0544 634.6496 305.5616 633.7792 308.5312 632.6272 311.6288 630.6816 314.4448 628.8512 317.0176 626.496 319.7824 624.0128 322.1248 621.44 324.352 618.5344 326.3744 615.9232 328.2688 613.76 329.4592 611.264 331.776 607.1424 332.4928 605.4656 332.9024 604.4544 333.1072 603.3152 333.6576 602.368 334.0672 602.1632 334.8608 601.7664 335.3472 601.7664 335.552 602.1632 335.936 602.1632 336.3456 602.368 337.6384 607.9616 339.0336 612.48 340.928 617.2032 342.8224 621.44 344.4224 625.6896 346.88 629.3888 348.6848 633.2928 350.6944 636.8768 353.0496 639.9616 354.8288 642.944 359.5264 648.4608 363.648 653.3888 367.6032 657.2288 371.5328 660.6592 374.8992 663.36 379.9424 667.7376 381.9776 668.6848 382.656 669.632 382.656 670.0928 382.1824 670.5024 381.9776 670.5024 380.9664 670.8352 377.1904 671.1168 373.6704 671.5776 370.7136 671.9744 367.6032 672.6528 364.9152 673.472 362.2272 674.2784 359.872 675.4944 357.9904 676.6336 355.6224 677.376 354.1376 678.592 352.5376 679.5264 350.8352 680.8832 348.6848 683.5072 347.8656 684.7232 346.88 685.7984 345.5232 688.5504 344.768 690.8544 343.8848 693.1456 343.6928 695.168 343.6928 697.792 343.6928 698.944 343.296 700.8256 343.296 702.72 342.8224 704.6016 342.8224 706.2912 343.296 708.1088 343.6928 709.7216 344.768 712.896 345.5232 714.368 346.4704 715.8528 347.5328 717.3248 348.6848 718.6304 350.2208 720.1024 351.3856 721.3056 354.8288 723.8016 358.272 725.9008 362.2272 727.7824 366.4768 729.472 370.9824 731.2896 375.9744 732.4288 380.9664 734.0544 386.3552 735.1296 391.744 735.936 397.2608 736.7552 402.9952 737.5616 414.272 738.7008 425.92 738.9056 436.6464 738.9056 441.6896 738.9056 446.528 738.9056 451.5712 738.7008 455.8976 738.2272 460.0576 737.8816 463.9872 737.5616 470.2592 736.3456 474.7648 735.1296 479.0912 734.0544 487.0272 730.816 490.6112 729.472 494.0544 727.7824 499.712 724.6848 504.8192 722.1888 508.608 719.8336 511.3728 717.3248 515.6864 717.8112 519.04 718.144 525.6576 718.6304 528.7552 718.6304 531.3792 718.6304 533.3888 719.0272 535.4368 719.8336 538.6752 720.9856 542.2848 722.1888 549.1712 724.2752 556.1984 726.7712 563.0464 728.7296 569.9328 730.0736 576.9984 731.8272 584.2944 732.8384 591.2064 733.5808 598.1696 734.528 604.6464 735.1296 611.5968 735.5392 618.24 735.5392 624.7168 735.5392 630.8608 735.5392 637.056 734.7968 643.136 734.528 648.9984 733.5808 654.3744 732.4288 659.7632 731.2896 664.9472 730.0736 667.0976 729.472 669.4784 728.7296 673.984 726.976 677.9648 725.1584 681.728 723.2768 685.2352 721.3056 688.3328 719.0272 689.5616 717.8112 691.0336 716.1344 692.9024 713.9072 694.9504 711.1296 695.7056 709.7216 696.0384 708.5824 696.896 707.0976 697.2288 705.472 697.2288 703.9232 697.6384 702.3744 697.2288 700.0832 696.896 698.1376 696.0384 695.8464 695.36 693.9648 694.0672 691.6736 692.5312 689.5744 691.0336 687.7568 689.0112 686.208 684.8896 682.7008 680.256 679.3216 675.584 676.6336 670.6816 673.8688 659.4304 668.48 656.7296 666.8672 656 666.112 655.5264 665.6512 660.928 660.3264 663.2832 657.7024 665.216 655.2704 669.0048 649.9456 672.5632 644.48 675.584 639.6416 678.4512 634.9824 682.2656 625.6896 685.2352 617.9328 687.2064 612.48 688.3328 610.6496 689.0112 609.1776 690.2144 608.2944 690.688 608.2944 691.0336 608.4992 693.9264 614.0928 696.4992 619.4944 698.3168 622.528 700.1984 625.1392 702.0672 628.3904 704.4608 631.552 706.4704 633.7792 707.6864 634.9824 708.8896 636.0704 709.9776 636.8768 711.04 637.6192 713.344 638.7584 714.5472 639.1552 715.3536 639.1552 716.4288 639.1552 717.6576 638.7584 719.1552 638.016 720.8192 637.2736 722.2272 636.0704 723.52 634.6496 724.9792 632.9088 726.144 631.552 727.4368 629.3888 728.4224 627.6352 729.5872 625.1392 730.2016 623.0528 731.8656 617.9328 732.9664 612.2752 733.7472 606.016 734.2848 602.368 734.2848 599.3344 734.2848 596.096 734.2848 592.128 733.4656 584.8448Z" p-id="10569" fill="#bfbfbf"></path><path d="M512 51.2C257.5104 51.2 51.2 257.5104 51.2 512c0 254.4896 206.3104 460.8 460.8 460.8 254.4896 0 460.8-206.3104 460.8-460.8C972.8 257.5104 766.4896 51.2 512 51.2zM512 951.8592C269.4656 951.8592 72.1408 754.5344 72.1408 512S269.4656 72.1408 512 72.1408 951.8592 269.4656 951.8592 512 754.5344 951.8592 512 951.8592z" p-id="10570" fill="#bfbfbf"></path></svg>