<?xml version="1.0" standalone="no"?><!DOCTYPE svg PUBLIC "-//W3C//DTD SVG 1.1//EN" "http://www.w3.org/Graphics/SVG/1.1/DTD/svg11.dtd"><svg t="1725110635881" class="icon" viewBox="0 0 1024 1024" version="1.1" xmlns="http://www.w3.org/2000/svg" p-id="11626" xmlns:xlink="http://www.w3.org/1999/xlink" width="200" height="200"><path d="M512 51.2C257.5104 51.2 51.2 257.5104 51.2 512c0 254.4896 206.3104 460.8 460.8 460.8 254.4896 0 460.8-206.3104 460.8-460.8C972.8 257.5104 766.4896 51.2 512 51.2zM512 947.2C272.0256 947.2 76.8 751.9744 76.8 512 76.8 272.0256 272.0256 76.8 512 76.8s435.2 195.2256 435.2 435.2C947.2 751.9744 751.9744 947.2 512 947.2z" p-id="11627" fill="#bfbfbf"></path><path d="M612.1088 421.0176c6.4896 0 12.9152 0.4736 19.2768 1.1904C614.0672 341.5424 527.8208 281.6 429.376 281.6c-110.0544 0-200.2176 75.0208-200.2176 170.2784 0 54.9888 29.9904 100.1472 80.1152 135.168l-20.0192 60.2368 69.9904-35.0976c25.0496 4.9536 45.1328 10.0608 70.1312 10.0608 6.2848 0 12.5184-0.3072 18.688-0.7936-3.9168-13.3888-6.1824-27.4048-6.1824-41.9584C441.8816 492.0064 517.0048 421.0176 612.1088 421.0176zM504.448 366.7328c15.0784 0 25.0624 9.92 25.0624 24.9856 0 15.0016-9.984 25.0624-25.0624 25.0624-15.0016 0-30.0672-10.0608-30.0672-25.0624C474.3936 376.6528 489.4464 366.7328 504.448 366.7328zM364.3264 416.7808c-15.0016 0-30.144-10.0608-30.144-25.0624 0-15.0656 15.1424-24.9856 30.144-24.9856 15.0016 0 24.9984 9.92 24.9984 24.9856C389.3248 406.7328 379.3408 416.7808 364.3264 416.7808z" p-id="11628" fill="#bfbfbf"></path><path d="M624.7808 431.7824c-95.2576 0-170.2912 65.2544-170.2912 145.2928 0 80.192 75.0336 145.2928 170.2912 145.2928 19.9424 0 40.0512-5.0304 60.0704-10.048L739.7632 742.4l-15.0528-50.0352c40.192-30.1568 70.1312-70.1312 70.1312-115.2896C794.8416 497.024 714.7392 431.7824 624.7808 431.7824zM569.5616 552.0256c-9.9712 0-20.032-9.92-20.032-20.032 0-9.9712 10.0608-20.0192 20.032-20.0192 15.1424 0 25.0624 10.048 25.0624 20.0192C594.624 542.1056 584.704 552.0256 569.5616 552.0256zM679.6928 552.0256c-9.8944 0-19.8912-9.92-19.8912-20.032 0-9.9712 9.984-20.0192 19.8912-20.0192 15.0016 0 25.0624 10.048 25.0624 20.0192C704.7552 542.1056 694.6944 552.0256 679.6928 552.0256z" p-id="11629" fill="#bfbfbf"></path></svg>