<?xml version="1.0" standalone="no"?><!DOCTYPE svg PUBLIC "-//W3C//DTD SVG 1.1//EN" "http://www.w3.org/Graphics/SVG/1.1/DTD/svg11.dtd"><svg t="1720604711785" class="icon" viewBox="0 0 1024 1024" version="1.1" xmlns="http://www.w3.org/2000/svg" p-id="10726" xmlns:xlink="http://www.w3.org/1999/xlink" width="200" height="200"><path d="M512 30.736c-256.438 0-464.322 181.899-464.322 406.283S255.562 843.301 512 843.301c20.065 0-5.347 104.518 14.158 105.092 11.609 0.342 149.951-130.901 165.671-136.685C858.964 750.22 976.321 605.612 976.321 437.02 976.322 212.635 768.437 30.737 512 30.737z m30.348 551.806H292.781c-25.031 0-45.511-20.48-45.511-45.511s20.48-45.511 45.511-45.511h249.567c25.031 0 45.511 20.48 45.511 45.511s-20.48 45.511-45.511 45.511z m188.871-200.249H292.781c-25.031 0-45.511-20.48-45.511-45.511s20.48-45.511 45.511-45.511h438.438c25.031 0 45.511 20.48 45.511 45.511s-20.48 45.511-45.511 45.511z" p-id="10727" fill="#ffffff"></path></svg>