<?xml version="1.0" standalone="no"?><!DOCTYPE svg PUBLIC "-//W3C//DTD SVG 1.1//EN" "http://www.w3.org/Graphics/SVG/1.1/DTD/svg11.dtd"><svg t="1717749766456" class="icon" viewBox="0 0 1024 1024" version="1.1" xmlns="http://www.w3.org/2000/svg" p-id="37181" xmlns:xlink="http://www.w3.org/1999/xlink" width="200" height="200"><path d="M516.421818 200.843636A307.781818 307.781818 0 1 0 824.203636 508.509091a307.781818 307.781818 0 0 0-307.781818-307.665455zM360.727273 494.778182l-33.163637-33.163637a206.778182 206.778182 0 0 1 141.963637-142.312727l28.741818 28.741818A171.170909 171.170909 0 0 0 360.727273 494.778182zM530.618182 581.818182a65.163636 65.163636 0 1 1 65.163636-65.163637 65.163636 65.163636 0 0 1-65.163636 65.163637z m142.312727 83.083636A205.963636 205.963636 0 0 1 630.341818 698.181818l-26.181818-26.181818a169.541818 169.541818 0 0 0 77.265455-73.425455l24.203636 24.203637a205.963636 205.963636 0 0 1-32.698182 42.24z" fill="#456AFF" p-id="37182"></path><path d="M733.090909 0H290.909091A291.723636 291.723636 0 0 0 0 290.909091v442.181818a291.723636 291.723636 0 0 0 290.909091 290.909091h442.181818a291.723636 291.723636 0 0 0 290.909091-290.909091V290.909091A291.723636 291.723636 0 0 0 733.090909 0zM516.421818 845.963636a337.454545 337.454545 0 1 1 337.454546-337.454545 337.454545 337.454545 0 0 1-337.454546 337.454545z" fill="#456AFF" p-id="37183"></path></svg>