<?xml version="1.0" standalone="no"?><!DOCTYPE svg PUBLIC "-//W3C//DTD SVG 1.1//EN" "http://www.w3.org/Graphics/SVG/1.1/DTD/svg11.dtd"><svg t="1717748553178" class="icon" viewBox="0 0 1024 1024" version="1.1" xmlns="http://www.w3.org/2000/svg" p-id="27660" id="mx_n_1717748553179" xmlns:xlink="http://www.w3.org/1999/xlink" width="200" height="200"><path d="M855.59296 74.38336H167.15776q-93.88032 0-93.88032 93.88032v688.4352q0 93.88032 93.88032 93.88032h688.4352q93.88032 0 93.88032-93.88032V168.26368q-0.02048-93.88032-93.88032-93.88032z m-68.85376 400.85504l-129.55648 93.88032a26.29632 26.29632 0 0 0-9.70752 29.40928l49.74592 152.39168A26.29632 26.29632 0 0 1 656.56832 780.288l-129.86368-93.88032a25.35424 25.35424 0 0 0-31.29344 0L365.54752 780.288a26.29632 26.29632 0 0 1-40.67328-29.40928l49.74592-152.39168a26.29632 26.29632 0 0 0-9.70752-29.40928l-129.55648-93.88032a26.29632 26.29632 0 0 1 15.33952-47.57504h160.54272A26.624 26.624 0 0 0 436.224 409.6l50.0736-152.69888a26.27584 26.27584 0 0 1 50.0736 0L585.8304 409.6a26.624 26.624 0 0 0 25.02656 18.14528h160.52224a26.29632 26.29632 0 0 1 15.33952 47.57504z" fill="#456AFF" p-id="27661"></path></svg>