<?xml version="1.0" standalone="no"?><!DOCTYPE svg PUBLIC "-//W3C//DTD SVG 1.1//EN" "http://www.w3.org/Graphics/SVG/1.1/DTD/svg11.dtd"><svg t="1717748604537" class="icon" viewBox="0 0 1024 1024" version="1.1" xmlns="http://www.w3.org/2000/svg" p-id="30167" xmlns:xlink="http://www.w3.org/1999/xlink" width="200" height="200"><path d="M896 896H128a42.666667 42.666667 0 0 1-42.666667-42.666667V170.666667a42.666667 42.666667 0 0 1 42.666667-42.666667h316.373333l85.333334 85.333333H896a42.666667 42.666667 0 0 1 42.666667 42.666667v597.333333a42.666667 42.666667 0 0 1-42.666667 42.666667z m-439.253333-338.474667a92.245333 92.245333 0 1 0 0 184.448 92.245333 92.245333 0 0 0 92.202666-92.202666v-166.016h110.677334V410.026667h-184.490667v149.333333a92.416 92.416 0 0 0-18.346667-1.834667z" fill="#456AFF" p-id="30168"></path></svg>